<svg id="a1a20660-247f-49e8-8a19-5c281f37864a" data-name="Layer 1" xmlns="http://www.w3.org/2000/svg" viewBox="0 0 258 258"><g opacity="0.85" style="isolation:isolate"><path d="M129,258A129,129,0,1,1,258,129,129.15,129.15,0,0,1,129,258ZM129,2A127,127,0,1,0,256,129,127.14,127.14,0,0,0,129,2Z" fill="#fff" style="isolation:isolate"/><path d="M169.84,224.81h-31.9a4,4,0,0,1-2.77-6.87A67.65,67.65,0,0,0,149,198.63a4,4,0,0,1,3.62-2.31h16.58c14.54,0,26.69-11.57,27.08-25.78a26.52,26.52,0,0,0-26.51-27.28H159.52a4,4,0,0,1-4-4v-20.5a4,4,0,0,1,4-4h9.69c14.54,0,26.69-11.56,27.08-25.77a26.52,26.52,0,0,0-26.51-27.28H145.25a2,2,0,0,0-2,2V169.78a55.1,55.1,0,0,1-55,55h0a55.11,55.11,0,0,1-55-55V159.53a4,4,0,0,1,4-4h20.5a4,4,0,0,1,4,4v10.25a26.56,26.56,0,0,0,26.53,26.51h0a26.55,26.55,0,0,0,26.51-26.51V63.7a2,2,0,0,0-2-2H88.22A26.45,26.45,0,0,0,61.86,85.55a4,4,0,0,1-4,3.67H37.32A4.06,4.06,0,0,1,34.39,88a3.92,3.92,0,0,1-1.07-3,55.13,55.13,0,0,1,54.9-51.81h81.62A55,55,0,0,1,206.7,129a55,55,0,0,1-36.86,95.81Zm-17.21-26.49a2,2,0,0,0-1.81,1.17,69.63,69.63,0,0,1-14.25,19.88,2,2,0,0,0-.47,2.21,1.92,1.92,0,0,0,1.84,1.23h31.9a53,53,0,0,0,34.7-93.05l-.87-.76.87-.76a53,53,0,0,0-34.7-93.05H88.22A53.13,53.13,0,0,0,35.31,85.12a2,2,0,0,0,.54,1.47,2,2,0,0,0,1.47.63H57.87a2,2,0,0,0,2-1.87A28.45,28.45,0,0,1,88.22,59.7h24.51a4,4,0,0,1,4,4V169.78a28.54,28.54,0,0,1-28.51,28.51h0a28.55,28.55,0,0,1-28.53-28.51V159.53a2,2,0,0,0-2-2H37.18a2,2,0,0,0-2,2v10.25a53.11,53.11,0,0,0,53,53h0a53.09,53.09,0,0,0,53-53V63.71a4,4,0,0,1,4-4h24.53A28.52,28.52,0,0,1,198.29,89c-.42,15.29-13.46,27.72-29.08,27.72h-9.69a2,2,0,0,0-2,2v20.5a2,2,0,0,0,2,2h10.26a28.52,28.52,0,0,1,28.51,29.33c-.42,15.29-13.46,27.73-29.08,27.73Z" fill="#fff" style="isolation:isolate"/></g></svg>